<?xml version="1.0" standalone="no"?>
<!DOCTYPE svg PUBLIC "-//W3C//DTD SVG 20010904//EN"
 "http://www.w3.org/TR/2001/REC-SVG-20010904/DTD/svg10.dtd">
<svg version="1.0" xmlns="http://www.w3.org/2000/svg"
 width="200.000000pt" height="37.000000pt" viewBox="0 0 200.000000 37.000000"
 preserveAspectRatio="xMidYMid meet">

<g transform="translate(0.000000,37.000000) scale(0.100000,-0.100000)"
fill="#000000" stroke="none">
<path d="M283 355 c-125 -34 -194 -110 -260 -283 l-24 -65 61 57 c76 70 126
96 183 96 67 0 95 -44 66 -103 -8 -18 -6 -17 13 4 29 33 96 79 116 79 8 0 32
-20 53 -44 44 -50 104 -81 174 -91 l50 -7 -47 30 c-53 35 -82 82 -72 115 10
34 53 87 88 108 20 12 49 19 84 19 57 0 64 10 31 44 -19 19 -28 21 -87 15 -52
-4 -90 -17 -167 -55 -94 -46 -104 -49 -181 -49 -65 0 -91 5 -133 24 -28 14
-50 29 -48 35 2 6 28 24 58 39 58 31 57 31 261 11 48 -4 80 -2 115 9 26 9 64
18 83 20 35 4 35 4 -5 5 -22 1 -58 -5 -80 -13 -51 -19 -116 -19 -185 0 -66 18
-80 18 -147 0z"/>
<path d="M900 340 c-53 -53 14 -136 75 -96 33 22 35 78 3 100 -30 21 -54 20
-78 -4z m88 -39 c5 -31 -15 -51 -49 -51 -51 0 -62 71 -15 90 27 10 60 -10 64
-39z"/>
<path d="M1067 353 c-4 -3 -7 -31 -6 -62 1 -40 3 -49 8 -31 5 19 16 27 41 31
l35 6 -37 2 c-31 1 -38 5 -38 21 0 16 7 20 35 20 19 0 35 5 35 10 0 11 -63 14
-73 3z"/>
<path d="M1207 353 c-11 -10 -8 -113 3 -113 6 0 10 11 10 24 0 20 6 25 33 29
l32 4 -32 1 c-26 2 -33 6 -33 22 0 16 7 20 30 20 17 0 30 5 30 10 0 11 -63 14
-73 3z"/>
<path d="M1362 344 c-30 -21 -30 -77 0 -98 27 -20 39 -20 63 -3 16 13 15 14
-14 9 -17 -2 -38 1 -46 8 -39 32 3 98 51 80 13 -5 24 -6 24 -1 0 10 -24 21
-44 21 -6 0 -22 -7 -34 -16z"/>
<path d="M1503 295 c0 -33 2 -48 4 -32 4 23 9 27 39 27 30 0 34 -3 34 -25 0
-14 4 -25 9 -25 5 0 10 25 10 55 0 30 -5 55 -10 55 -5 0 -9 -11 -9 -25 0 -22
-4 -25 -34 -25 -30 0 -35 4 -39 28 -2 15 -4 0 -4 -33z"/>
<path d="M1677 298 c-13 -29 -22 -55 -19 -58 3 -3 7 1 9 8 6 14 83 17 83 2 0
-5 4 -10 10 -10 11 0 -36 104 -50 108 -5 2 -20 -20 -33 -50z m47 16 c10 -27 7
-34 -19 -34 -23 0 -24 2 -13 25 13 29 23 32 32 9z"/>
<path d="M1820 295 c0 -30 5 -55 10 -55 6 0 10 25 10 55 0 30 -4 55 -10 55 -5
0 -10 -25 -10 -55z"/>
<path d="M1900 295 c0 -33 4 -55 11 -55 7 0 10 15 7 40 -2 22 -1 40 2 40 4 0
19 -18 36 -40 16 -22 32 -40 37 -40 4 0 6 26 5 58 -1 49 -2 51 -5 15 -2 -24
-7 -43 -11 -43 -4 0 -20 18 -36 40 -17 22 -33 40 -38 40 -4 0 -8 -25 -8 -55z"/>
<path d="M1923 160 c-15 -6 -23 -18 -23 -34 0 -24 16 -36 51 -36 11 0 19 -7
19 -16 0 -13 -7 -15 -35 -11 -44 7 -54 -7 -16 -23 36 -14 68 -6 76 21 9 26
-10 47 -43 51 -30 3 -28 22 3 25 38 2 40 4 21 18 -22 17 -23 17 -53 5z"/>
<path d="M890 99 l0 -60 48 3 47 3 1 50 c2 57 -5 65 -58 65 l-38 0 0 -61z m70
26 c0 -9 -9 -15 -25 -15 -16 0 -25 6 -25 15 0 9 9 15 25 15 16 0 25 -6 25 -15z
m1 -50 c0 -5 -12 -11 -26 -13 -18 -2 -25 1 -25 13 0 12 7 15 25 13 14 -2 26
-7 26 -13z"/>
<path d="M1050 100 c0 -47 3 -60 15 -60 12 0 15 13 15 60 0 47 -3 60 -15 60
-12 0 -15 -13 -15 -60z"/>
<path d="M1130 150 c0 -5 9 -10 20 -10 17 0 20 -7 20 -50 0 -38 4 -50 15 -50
11 0 15 12 15 50 0 43 3 50 20 50 11 0 20 5 20 10 0 6 -25 10 -55 10 -30 0
-55 -4 -55 -10z"/>
<path d="M1295 136 c-33 -50 12 -115 69 -100 40 10 32 31 -11 30 -32 -1 -38 2
-41 22 -5 35 16 55 51 48 20 -4 27 -2 25 7 -3 6 -21 13 -41 15 -29 3 -39 -2
-52 -22z"/>
<path d="M1457 142 c-56 -61 37 -143 100 -90 21 17 16 86 -6 98 -30 16 -76 12
-94 -8z m87 -24 c16 -26 -4 -53 -40 -53 -23 0 -30 5 -32 23 -7 47 47 69 72 30z"/>
<path d="M1630 100 c0 -47 3 -60 15 -60 12 0 15 13 15 60 0 47 -3 60 -15 60
-12 0 -15 -13 -15 -60z"/>
<path d="M1720 100 c0 -47 3 -60 15 -60 11 0 15 11 15 38 l1 37 30 -38 c45
-55 59 -49 59 23 0 47 -3 60 -15 60 -11 0 -15 -11 -15 -37 l-1 -38 -30 38
c-45 55 -59 49 -59 -23z"/>
</g>
</svg>
