<svg xmlns="http://www.w3.org/2000/svg" viewBox="0 0 196.53 34.97"><defs><style>.cls-1{fill:#fffef2;}.cls-2{fill:#c5f617;}.cls-3{fill:#7432ff;}</style></defs><g id="Layer_2" data-name="Layer 2"><g id="Footer"><g id="Info"><g id="About"><g id="Logo"><path class="cls-1" d="M115.67,6.25V32H110.5V15.26L103.6,32H99.69L92.75,15.26V32H87.58V6.25h5.87l8.2,19.16,8.19-19.16Z"/><path class="cls-1" d="M120.67,16.22a8.86,8.86,0,0,1,8.1-5,8.23,8.23,0,0,1,4,.92,8,8,0,0,1,2.75,2.32V11.57h5.21V32h-5.21V29a7.76,7.76,0,0,1-2.75,2.38,8.46,8.46,0,0,1-4,.94A8.71,8.71,0,0,1,124,31a9.28,9.28,0,0,1-3.36-3.75,11.94,11.94,0,0,1-1.24-5.55A11.76,11.76,0,0,1,120.67,16.22Zm14.12,2.34a5.31,5.31,0,0,0-4.69-2.78,5.17,5.17,0,0,0-4.63,2.75,6.33,6.33,0,0,0-.76,3.19,6.59,6.59,0,0,0,.76,3.23,5.44,5.44,0,0,0,2,2.12,5.06,5.06,0,0,0,2.64.74A5.3,5.3,0,0,0,134.79,25a6.64,6.64,0,0,0,.73-3.23A6.67,6.67,0,0,0,134.79,18.56Z"/><path class="cls-1" d="M157.08,32l-4.21-6.34L149.14,32h-5.53l6.68-10.26-6.76-10.18h5.83l4.17,6.31,3.77-6.31h5.53l-6.71,10.18L162.91,32Z"/><path class="cls-1" d="M165.62,16.22a8.92,8.92,0,0,1,8.14-5,8.8,8.8,0,0,1,3.8.86,7.72,7.72,0,0,1,2.88,2.31V4.7h5.24V32h-5.24V29a6.93,6.93,0,0,1-2.7,2.43,8.34,8.34,0,0,1-4,.93A8.81,8.81,0,0,1,169,31a9.26,9.26,0,0,1-3.38-3.75,12.07,12.07,0,0,1-1.24-5.55A11.88,11.88,0,0,1,165.62,16.22Zm14.12,2.34a5.31,5.31,0,0,0-4.69-2.78,5.17,5.17,0,0,0-4.63,2.75,6.33,6.33,0,0,0-.76,3.19,6.59,6.59,0,0,0,.76,3.23,5.44,5.44,0,0,0,2,2.12,5.09,5.09,0,0,0,2.64.74A5.3,5.3,0,0,0,179.74,25a6.64,6.64,0,0,0,.73-3.23A6.67,6.67,0,0,0,179.74,18.56Z"/><path class="cls-1" d="M191.09,8.27a2.86,2.86,0,0,1-.91-2.16A2.86,2.86,0,0,1,191.09,4a3.38,3.38,0,0,1,4.53,0,2.86,2.86,0,0,1,.91,2.16,2.86,2.86,0,0,1-.91,2.16,3.41,3.41,0,0,1-4.53,0Zm4.81,3.3V32h-5.17V11.57Z"/><g id="Shape"><path class="cls-2" d="M58.34,14.49a6,6,0,0,0-4.28,1.77L46,24.34a6.06,6.06,0,0,0,0,8.56l.3.3a6.06,6.06,0,0,0,8.56,0l8.08-8.08a6.06,6.06,0,0,0,0-8.56l-.3-.3A6,6,0,0,0,58.34,14.49Z"/><path class="cls-3" d="M50.62,0a6,6,0,0,0-4.28,1.77L23.93,24.18a6.07,6.07,0,0,0,0,8.55l.3.3a6.06,6.06,0,0,0,8.56,0L55.2,10.63h0a6.08,6.08,0,0,0,0-8.56l-.3-.3A6,6,0,0,0,50.62,0Z"/><path class="cls-3" d="M28.45,0a6,6,0,0,0-4.27,1.77L1.77,24.18a6,6,0,0,0,0,8.55l.3.3A6,6,0,0,0,6.35,34.8,6,6,0,0,0,10.62,33L33,10.63h0a6.06,6.06,0,0,0,0-8.56l-.3-.3A6,6,0,0,0,28.45,0Z"/></g></g></g></g></g></g></svg>