<svg xmlns="http://www.w3.org/2000/svg" viewBox="0 0 183.95 32.73"><defs><style>.cls-1{fill:#c5f617;}.cls-2{fill:#7432ff;}.cls-3{fill:#fff;}</style></defs><g id="Layer_2" data-name="Layer 2"><g id="Header_Top" data-name="Header Top"><g id="Logo"><g id="Shape"><path class="cls-1" d="M54.6,13.56a5.65,5.65,0,0,0-4,1.66L43,22.78a5.67,5.67,0,0,0,0,8l.28.28a5.66,5.66,0,0,0,8,0l7.56-7.56a5.67,5.67,0,0,0,0-8l-.28-.28A5.66,5.66,0,0,0,54.6,13.56Z"/><path class="cls-2" d="M47.38,0a5.6,5.6,0,0,0-4,1.66l-21,21a5.67,5.67,0,0,0,0,8l.28.28a5.66,5.66,0,0,0,8,0l21-21h0a5.66,5.66,0,0,0,0-8l-.28-.28A5.62,5.62,0,0,0,47.38,0Z"/><path class="cls-2" d="M26.63,0a5.62,5.62,0,0,0-4,1.66l-21,21a5.67,5.67,0,0,0,0,8l.28.28a5.65,5.65,0,0,0,8,0l21-21h0a5.67,5.67,0,0,0,0-8l-.28-.28A5.64,5.64,0,0,0,26.63,0Z"/></g><g id="Text"><path class="cls-3" d="M108.26,5.85V30h-4.83V14.28L97,30H93.31l-6.5-15.69V30H82V5.85h5.49l7.67,17.93,7.67-17.93Z"/><path class="cls-3" d="M112.94,15.18a8.44,8.44,0,0,1,3.15-3.45,8.32,8.32,0,0,1,4.44-1.21,7.85,7.85,0,0,1,3.74.86,7.59,7.59,0,0,1,2.58,2.18V10.83h4.87V30h-4.87v-2.8a7.16,7.16,0,0,1-2.58,2.23,7.93,7.93,0,0,1-3.78.88,8.11,8.11,0,0,1-4.4-1.25,8.72,8.72,0,0,1-3.15-3.5,11.28,11.28,0,0,1-1.15-5.2A11.1,11.1,0,0,1,112.94,15.18Zm13.22,2.19a4.9,4.9,0,0,0-1.87-1.93,5.08,5.08,0,0,0-5,0,5,5,0,0,0-1.85,1.92,6,6,0,0,0-.7,3,6.21,6.21,0,0,0,.7,3,5.21,5.21,0,0,0,1.87,2,4.73,4.73,0,0,0,2.47.69,5,5,0,0,0,2.52-.68,4.9,4.9,0,0,0,1.87-1.93,6.21,6.21,0,0,0,.69-3A6.25,6.25,0,0,0,126.16,17.37Z"/><path class="cls-3" d="M147,30,143.08,24,139.59,30h-5.18l6.25-9.61-6.32-9.53h5.46l3.9,5.91,3.53-5.91h5.18l-6.29,9.53L152.48,30Z"/><path class="cls-3" d="M155,15.18a8.35,8.35,0,0,1,7.61-4.66,8.14,8.14,0,0,1,3.56.81,7.11,7.11,0,0,1,2.7,2.16V4.4h4.9V30h-4.9V27.13a6.45,6.45,0,0,1-2.53,2.28,7.82,7.82,0,0,1-3.76.87A8.2,8.2,0,0,1,158.18,29a8.6,8.6,0,0,1-3.16-3.5,11.28,11.28,0,0,1-1.16-5.2A11.1,11.1,0,0,1,155,15.18Zm13.21,2.19a4.83,4.83,0,0,0-1.87-1.93,4.92,4.92,0,0,0-6.85,1.9,6,6,0,0,0-.71,3,6.21,6.21,0,0,0,.71,3,5.11,5.11,0,0,0,1.86,2,4.75,4.75,0,0,0,2.47.69,5,5,0,0,0,2.52-.68,4.83,4.83,0,0,0,1.87-1.93,6.21,6.21,0,0,0,.69-3A6.25,6.25,0,0,0,168.23,17.37Z"/><path class="cls-3" d="M178.85,7.74a2.7,2.7,0,0,1-.84-2,2.69,2.69,0,0,1,.84-2,3.16,3.16,0,0,1,4.25,0,2.69,2.69,0,0,1,.85,2,2.71,2.71,0,0,1-.85,2,3.19,3.19,0,0,1-4.25,0Zm4.51,3.09V30h-4.84V10.83Z"/></g></g></g></g></svg>